<svg xmlns="http://www.w3.org/2000/svg" xmlns:xlink="http://www.w3.org/1999/xlink" width="500" zoomAndPan="magnify" viewBox="0 0 375 112.499997" height="150" preserveAspectRatio="xMidYMid meet" version="1.0"><defs><g/></defs><path fill="#0072ff" d="M 86.554688 19.53125 C 82.171875 16.242188 78.113281 19.859375 67.035156 28.269531 C 55.957031 36.679688 47.734375 53.570312 47.734375 53.570312 C 47.566406 53.890625 47.425781 54.203125 47.304688 54.5 C 46.800781 52.203125 46.125 50.792969 45.378906 50.792969 C 44.636719 50.792969 43.957031 52.203125 43.457031 54.5 C 43.339844 54.199219 43.199219 53.890625 43.027344 53.570312 C 43.027344 53.570312 34.800781 36.679688 23.722656 28.269531 C 12.644531 19.859375 8.589844 16.242188 4.203125 19.53125 C 0.90625 22.007812 1.636719 26.074219 3.082031 29.386719 C 4.882812 33.511719 8.261719 36.675781 9.535156 41.105469 C 10.734375 45.28125 10.105469 49.792969 11.121094 54.015625 C 11.476562 55.496094 12.078125 56.988281 13.242188 57.964844 C 14.351562 58.894531 15.820312 59.242188 17.246094 59.488281 C 19.964844 59.957031 22.785156 60.234375 25.59375 60.28125 C 25.257812 60.363281 24.925781 60.457031 24.597656 60.554688 C 20.679688 61.699219 16.992188 63.878906 14.878906 67.472656 C 12.988281 70.691406 12.371094 74.753906 13.023438 78.410156 C 13.707031 82.234375 16.261719 85.222656 18.238281 88.449219 C 19.28125 90.148438 20.226562 92 21.851562 93.160156 C 25.453125 95.730469 30.984375 94.667969 34.089844 91.816406 C 35.867188 90.179688 37.003906 88.019531 38.015625 85.863281 C 39.011719 83.75 40.0625 81.65625 40.980469 79.507812 C 41.808594 77.574219 42.605469 75.621094 43.34375 73.652344 C 43.855469 76.257812 44.578125 77.890625 45.378906 77.890625 C 46.183594 77.890625 46.902344 76.265625 47.417969 73.652344 C 48.15625 75.625 48.953125 77.574219 49.78125 79.507812 C 50.699219 81.65625 51.753906 83.75 52.746094 85.863281 C 53.761719 88.019531 54.898438 90.1875 56.671875 91.816406 C 59.78125 94.664062 65.308594 95.726562 68.910156 93.160156 C 70.53125 92.003906 71.480469 90.148438 72.523438 88.449219 C 74.5 85.222656 77.054688 82.234375 77.734375 78.410156 C 78.390625 74.75 77.773438 70.6875 75.882812 67.472656 C 73.769531 63.878906 70.085938 61.699219 66.164062 60.554688 C 65.835938 60.457031 65.5 60.363281 65.167969 60.28125 C 67.976562 60.234375 70.796875 59.957031 73.515625 59.488281 C 74.9375 59.242188 76.410156 58.894531 77.519531 57.964844 C 78.683594 56.988281 79.285156 55.496094 79.640625 54.015625 C 80.65625 49.792969 80.03125 45.28125 81.226562 41.105469 C 82.5 36.675781 85.878906 33.511719 87.679688 29.386719 C 89.125 26.074219 89.859375 22.007812 86.554688 19.53125 Z M 86.554688 19.53125 " fill-opacity="1" fill-rule="nonzero"/><g fill="#0072ff" fill-opacity="1"><g transform="translate(91.082378, 83.628313)"><g><path d="M 66.921875 -57.84375 C 67.472656 -57.84375 67.953125 -57.632812 68.359375 -57.21875 C 68.773438 -56.800781 68.984375 -56.316406 68.984375 -55.765625 L 68.984375 -2.0625 C 68.984375 -1.507812 68.773438 -1.023438 68.359375 -0.609375 C 67.953125 -0.203125 67.472656 0 66.921875 0 L 53.953125 0 C 53.398438 0 52.914062 -0.203125 52.5 -0.609375 C 52.09375 -1.023438 51.890625 -1.507812 51.890625 -2.0625 L 51.890625 -27.59375 C 51.890625 -27.59375 51.613281 -27.191406 51.0625 -26.390625 C 50.507812 -25.597656 49.804688 -24.582031 48.953125 -23.34375 C 48.097656 -22.101562 47.21875 -20.820312 46.3125 -19.5 C 45.40625 -18.175781 44.59375 -16.988281 43.875 -15.9375 C 43.15625 -14.894531 42.660156 -14.179688 42.390625 -13.796875 C 41.617188 -12.585938 40.984375 -11.925781 40.484375 -11.8125 C 39.992188 -11.707031 39.582031 -11.65625 39.25 -11.65625 L 33.875 -11.65625 C 33.539062 -11.65625 33.125 -11.707031 32.625 -11.8125 C 32.132812 -11.925781 31.503906 -12.585938 30.734375 -13.796875 C 30.460938 -14.179688 29.953125 -14.894531 29.203125 -15.9375 C 28.460938 -16.988281 27.632812 -18.175781 26.71875 -19.5 C 25.8125 -20.820312 24.929688 -22.101562 24.078125 -23.34375 C 23.222656 -24.582031 22.519531 -25.597656 21.96875 -26.390625 C 21.425781 -27.191406 21.15625 -27.59375 21.15625 -27.59375 L 21.15625 -2.0625 C 21.15625 -1.507812 20.960938 -1.023438 20.578125 -0.609375 C 20.191406 -0.203125 19.695312 0 19.09375 0 L 6.203125 0 C 5.648438 0 5.164062 -0.203125 4.75 -0.609375 C 4.332031 -1.023438 4.125 -1.507812 4.125 -2.0625 L 4.125 -55.765625 C 4.125 -56.316406 4.332031 -56.800781 4.75 -57.21875 C 5.164062 -57.632812 5.648438 -57.84375 6.203125 -57.84375 L 15.953125 -57.84375 C 16.660156 -57.84375 17.222656 -57.703125 17.640625 -57.421875 C 18.054688 -57.148438 18.507812 -56.710938 19 -56.109375 C 19.164062 -55.878906 19.703125 -55.144531 20.609375 -53.90625 C 21.523438 -52.664062 22.640625 -51.132812 23.953125 -49.3125 C 25.273438 -47.5 26.648438 -45.585938 28.078125 -43.578125 C 29.515625 -41.566406 30.878906 -39.679688 32.171875 -37.921875 C 33.472656 -36.160156 34.519531 -34.726562 35.3125 -33.625 C 36.113281 -32.519531 36.515625 -31.96875 36.515625 -31.96875 C 36.515625 -31.96875 36.914062 -32.519531 37.71875 -33.625 C 38.519531 -34.726562 39.566406 -36.160156 40.859375 -37.921875 C 42.148438 -39.679688 43.523438 -41.566406 44.984375 -43.578125 C 46.441406 -45.585938 47.832031 -47.5 49.15625 -49.3125 C 50.476562 -51.132812 51.59375 -52.664062 52.5 -53.90625 C 53.414062 -55.144531 53.957031 -55.878906 54.125 -56.109375 C 54.613281 -56.710938 55.066406 -57.148438 55.484375 -57.421875 C 55.898438 -57.703125 56.460938 -57.84375 57.171875 -57.84375 Z M 66.921875 -57.84375 "/></g></g></g><g fill="#0072ff" fill-opacity="1"><g transform="translate(160.569586, 83.628313)"><g><path d="M 19.09375 -57.84375 C 19.695312 -57.84375 20.191406 -57.648438 20.578125 -57.265625 C 20.960938 -56.878906 21.15625 -56.378906 21.15625 -55.765625 L 21.15625 -2.0625 C 21.15625 -1.507812 20.960938 -1.023438 20.578125 -0.609375 C 20.191406 -0.203125 19.695312 0 19.09375 0 L 6.203125 0 C 5.648438 0 5.164062 -0.203125 4.75 -0.609375 C 4.332031 -1.023438 4.125 -1.507812 4.125 -2.0625 L 4.125 -55.765625 C 4.125 -56.378906 4.332031 -56.878906 4.75 -57.265625 C 5.164062 -57.648438 5.648438 -57.84375 6.203125 -57.84375 Z M 19.09375 -57.84375 "/></g></g></g><g fill="#0072ff" fill-opacity="1"><g transform="translate(182.216937, 83.628313)"><g><path d="M 53.125 0 L 43.953125 0 C 42.742188 0 41.847656 -0.175781 41.265625 -0.53125 C 40.691406 -0.894531 40.1875 -1.40625 39.75 -2.0625 L 21.234375 -29.90625 L 21.234375 -2.0625 C 21.234375 -1.507812 21.023438 -1.023438 20.609375 -0.609375 C 20.203125 -0.203125 19.722656 0 19.171875 0 L 6.203125 0 C 5.648438 0 5.164062 -0.203125 4.75 -0.609375 C 4.332031 -1.023438 4.125 -1.507812 4.125 -2.0625 L 4.125 -55.765625 C 4.125 -56.378906 4.332031 -56.878906 4.75 -57.265625 C 5.164062 -57.648438 5.648438 -57.84375 6.203125 -57.84375 L 15.703125 -57.84375 C 16.691406 -57.84375 17.488281 -57.632812 18.09375 -57.21875 C 18.695312 -56.800781 19.441406 -56.015625 20.328125 -54.859375 C 20.597656 -54.472656 21.226562 -53.5625 22.21875 -52.125 C 23.21875 -50.695312 24.390625 -48.992188 25.734375 -47.015625 C 27.085938 -45.035156 28.476562 -42.957031 29.90625 -40.78125 C 31.34375 -38.601562 32.691406 -36.578125 33.953125 -34.703125 C 35.222656 -32.828125 36.242188 -31.3125 37.015625 -30.15625 C 37.785156 -29 38.171875 -28.421875 38.171875 -28.421875 L 38.171875 -55.765625 C 38.171875 -56.378906 38.375 -56.878906 38.78125 -57.265625 C 39.195312 -57.648438 39.679688 -57.84375 40.234375 -57.84375 L 53.125 -57.84375 C 53.726562 -57.84375 54.222656 -57.648438 54.609375 -57.265625 C 54.992188 -56.878906 55.1875 -56.378906 55.1875 -55.765625 L 55.1875 -2.0625 C 55.1875 -1.507812 54.992188 -1.023438 54.609375 -0.609375 C 54.222656 -0.203125 53.726562 0 53.125 0 Z M 53.125 0 "/></g></g></g><g fill="#0072ff" fill-opacity="1"><g transform="translate(237.905779, 83.628313)"><g><path d="M 27.34375 -57.84375 C 34.0625 -57.84375 39.597656 -56.972656 43.953125 -55.234375 C 48.304688 -53.492188 51.734375 -51.207031 54.234375 -48.375 C 56.742188 -45.539062 58.507812 -42.425781 59.53125 -39.03125 C 60.550781 -35.644531 61.0625 -32.300781 61.0625 -29 C 61.0625 -22.882812 59.628906 -17.664062 56.765625 -13.34375 C 53.898438 -9.019531 49.890625 -5.710938 44.734375 -3.421875 C 39.585938 -1.140625 33.570312 0 26.6875 0 L 6.203125 0 C 5.648438 0 5.164062 -0.203125 4.75 -0.609375 C 4.332031 -1.023438 4.125 -1.507812 4.125 -2.0625 L 4.125 -55.765625 C 4.125 -56.378906 4.332031 -56.878906 4.75 -57.265625 C 5.164062 -57.648438 5.648438 -57.84375 6.203125 -57.84375 Z M 28.671875 -14.21875 C 32.191406 -14.21875 35.066406 -14.890625 37.296875 -16.234375 C 39.535156 -17.585938 41.175781 -19.363281 42.21875 -21.5625 C 43.269531 -23.769531 43.796875 -26.195312 43.796875 -28.84375 C 43.796875 -31.257812 43.328125 -33.597656 42.390625 -35.859375 C 41.453125 -38.117188 39.878906 -39.976562 37.671875 -41.4375 C 35.472656 -42.894531 32.472656 -43.625 28.671875 -43.625 L 21.15625 -43.625 L 21.15625 -14.21875 Z M 28.671875 -14.21875 "/></g></g></g><g fill="#0072ff" fill-opacity="1"><g transform="translate(299.460984, 83.628313)"><g><path d="M 57.75 -57.84375 C 58.46875 -57.84375 59.019531 -57.609375 59.40625 -57.140625 C 59.789062 -56.671875 59.765625 -55.96875 59.328125 -55.03125 C 59.210938 -54.75 58.78125 -53.90625 58.03125 -52.5 C 57.289062 -51.101562 56.359375 -49.316406 55.234375 -47.140625 C 54.109375 -44.960938 52.882812 -42.617188 51.5625 -40.109375 C 50.238281 -37.609375 48.925781 -35.117188 47.625 -32.640625 C 46.332031 -30.160156 45.148438 -27.882812 44.078125 -25.8125 C 43.003906 -23.75 42.132812 -22.097656 41.46875 -20.859375 C 40.8125 -19.617188 40.484375 -19 40.484375 -19 L 40.484375 -2.0625 C 40.484375 -1.507812 40.289062 -1.023438 39.90625 -0.609375 C 39.519531 -0.203125 39.023438 0 38.421875 0 L 25.453125 0 C 24.898438 0 24.429688 -0.203125 24.046875 -0.609375 C 23.660156 -1.023438 23.46875 -1.507812 23.46875 -2.0625 L 23.46875 -19 C 23.46875 -19 23.132812 -19.617188 22.46875 -20.859375 C 21.8125 -22.097656 20.945312 -23.75 19.875 -25.8125 C 18.800781 -27.882812 17.613281 -30.160156 16.3125 -32.640625 C 15.019531 -35.117188 13.710938 -37.625 12.390625 -40.15625 C 11.066406 -42.6875 9.828125 -45.039062 8.671875 -47.21875 C 7.515625 -49.394531 6.5625 -51.195312 5.8125 -52.625 C 5.070312 -54.0625 4.648438 -54.914062 4.546875 -55.1875 C 4.109375 -56.125 4.082031 -56.800781 4.46875 -57.21875 C 4.851562 -57.632812 5.398438 -57.84375 6.109375 -57.84375 L 19.578125 -57.84375 C 20.796875 -57.84375 21.609375 -57.617188 22.015625 -57.171875 C 22.429688 -56.734375 22.832031 -55.960938 23.21875 -54.859375 C 23.332031 -54.585938 23.703125 -53.75 24.328125 -52.34375 C 24.960938 -50.9375 25.707031 -49.269531 26.5625 -47.34375 C 27.414062 -45.414062 28.253906 -43.515625 29.078125 -41.640625 C 29.910156 -39.765625 30.597656 -38.207031 31.140625 -36.96875 C 31.691406 -35.726562 31.96875 -35.109375 31.96875 -35.109375 C 31.96875 -35.109375 32.242188 -35.742188 32.796875 -37.015625 C 33.347656 -38.285156 34.035156 -39.851562 34.859375 -41.71875 C 35.691406 -43.59375 36.519531 -45.492188 37.34375 -47.421875 C 38.164062 -49.347656 38.894531 -51.015625 39.53125 -52.421875 C 40.164062 -53.828125 40.539062 -54.640625 40.65625 -54.859375 C 41.09375 -55.960938 41.515625 -56.734375 41.921875 -57.171875 C 42.335938 -57.617188 43.15625 -57.84375 44.375 -57.84375 Z M 57.75 -57.84375 "/></g></g></g></svg>